#!OML:ASF F:\VICON\USERDATA\INSTALL\rory3\rory3.ASF
:FULLY-SPECIFIED
:DEGREES
429
root 2.23733 15.3355 18.0231 159.287 -80.44 -135.198
lowerback 1.2218 -2.42282 3.76584
upperback -10.5097 -3.50496 -0.0944313
thorax -12.2307 -2.28035 -1.73744
lowerneck -14.9894 -14.9617 -12.1025
upperneck 18.2412 -22.6427 16.6
head 11.8463 -9.87077 4.01737
rclavicle 6.80341e-014 -2.06736e-014
rhumerus -17.8321 12.6696 -75.9053
rradius 32.0363
rwrist -17.5135
rhand -5.23727 11.067
rfingers 7.12502
rthumb 20.5654 -17.8637
lclavicle 6.80341e-014 -2.06736e-014
lhumerus -44.8154 28.6054 36.3617
lradius 17.6535
lwrist -41.8283
lhand 2.19856 21.5679
lfingers 7.12502
lthumb 27.6945 49.5487
rfemur 302.602 -1.17092 -326.869
rtibia 64.4715
rfoot 150.415 -199.681
rtoes 7.40269
lfemur -28.9884 -8.55644 15.3914
ltibia 44.0781
lfoot -72.5906 -18.8854
ltoes 54.0657
430
root 2.186 15.3686 17.8586 161.689 -80.8955 -137.923
lowerback 0.986976 -2.75515 3.68724
upperback -10.5182 -3.98491 -0.125307
thorax -12.1273 -2.51084 -1.67959
lowerneck -14.8736 -14.7744 -12.605
upperneck 18.895 -22.4509 16.6497
head 12.1133 -9.79839 4.15964
rclavicle 5.41688e-015 3.33958e-014
rhumerus -16.4675 10.8792 -73.5964
rradius 30.6158
rwrist -16.4862
rhand -6.05888 11.0564
rfingers 7.12502
rthumb 19.7757 -17.9576
lclavicle 5.41688e-015 3.33958e-014
lhumerus -45.6696 29.0947 33.4159
lradius 17.465
lwrist -43.4491
lhand 1.90554 22.6512
lfingers 7.12502
lthumb 27.4142 50.6767
rfemur 303.407 -0.862745 -327.113
rtibia 64.216
rfoot 149.396 -199.257
rtoes 11.1713
lfemur -29.3224 -8.59335 14.2878
ltibia 44.3566
lfoot -72.1066 -17.9489
ltoes 54.0688
431
root 2.13055 15.4226 17.71 167.627 -81.4016 -144.083
lowerback 0.563852 -2.93752 3.37485
upperback -10.5925 -4.32347 -0.480203
thorax -11.9831 -2.6769 -1.87084
lowerneck -14.266 -14.6147 -12.9425
upperneck 19.1885 -22.3914 16.8949
head 12.1796 -9.81201 4.35062
rclavicle -1.03654e-013 -4.92986e-014
rhumerus -15.3694 8.13303 -71.2799
rradius 29.154
rwrist -14.9435
rhand -6.73136 10.8479
rfingers 7.12502
rthumb 19.1292 -18.2314
lclavicle -1.03654e-013 -4.92986e-014
lhumerus -46.1 29.2321 30.7473
lradius 17.2596
lwrist -44.9459
lhand 1.39067 23.4706
lfingers 7.12502
lthumb 26.9217 51.5731
rfemur 304.084 -0.665515 -327.876
rtibia 63.8669
rfoot 148.79 -199.317
rtoes 12.6001
lfemur -29.7097 -9.8766 12.5476
ltibia 44.5206
lfoot -72.8267 -18.0281
ltoes 54.1064
432
root 2.07374 15.4858 17.5721 173.989 -81.6273 -150.503
lowerback -0.0249962 -2.87941 3.15511
upperback -10.6594 -4.3379 -0.914129
thorax -11.7226 -2.70059 -2.24861
lowerneck -13.8254 -14.5879 -13.1178
upperneck 19.5918 -22.5541 17.054
head 12.3258 -9.90759 4.42733
rclavicle -6.6655e-015 -5.725e-014
rhumerus -14.7607 5.75088 -68.8976
rradius 28.2227
rwrist -13.3328
rhand -8.70061 9.71835
rfingers 7.12502
rthumb 17.2346 -19.5374
lclavicle -6.6655e-015 -5.725e-014
lhumerus -45.7552 29.0509 28.866
lradius 17.0965
lwrist -46.1382
lhand 0.74015 24.3586
lfingers 7.12502
lthumb 26.2991 52.5556
rfemur 304.633 -0.52802 -328.465
rtibia 63.4699
rfoot 147.358 -197.245
rtoes 21.9627
lfemur -30.1026 -11.4233 10.9091
ltibia 44.4512
lfoot -74.1764 -17.0895
ltoes 54.0955
433
root 2.01146 15.579 17.4251 190.572 -81.5047 -166.801
lowerback -1.06345 -2.82046 1.20217
upperback -10.8865 -4.4969 -1.55742
thorax -11.2522 -2.65866 -1.89711
lowerneck -13.7868 -14.5297 -13.0029
upperneck 20.4627 -22.6436 16.7167
head 12.6053 -9.9511 4.27917
rclavicle 3.93035e-014 2.70347e-014
rhumerus -14.2391 4.22326 -66.5449
rradius 27.4314
rwrist -11.8133
rhand -8.7683 9.10484
rfingers 7.12502
rthumb 17.1695 -20.1566
lclavicle 3.93035e-014 2.70347e-014
lhumerus -44.9338 27.4367 28.489
lradius 17.0976
lwrist -45.2546
lhand 0.370011 25.3499
lfingers 7.12502
lthumb 25.9447 53.5992
rfemur 304.539 -0.232402 -330.609
rtibia 63.0896
rfoot 147.357 -196.875
rtoes 24.3924
lfemur -30.7266 -13.9089 7.81412
ltibia 44.2001
lfoot -76.37 -17.0003
ltoes 54.0146
434
root 1.94439 15.6876 17.2577 212.243 -80.2276 -188.052
lowerback -2.37853 -2.90897 -2.31368
upperback -11.2046 -4.92117 -2.41967
thorax -10.6443 -2.63852 -0.913436
lowerneck -13.3325 -14.4642 -13.6103
upperneck 21.2443 -22.7318 16.8007
head 12.9351 -10.0418 4.4144
rclavicle -1.10077e-014 -3.18055e-015
rhumerus -13.6472 2.84451 -64.3617
rradius 26.5818
rwrist -10.7687
rhand -8.64455 8.40258
rfingers 7.12502
rthumb 17.2886 -20.8484
lclavicle -1.10077e-014 -3.18055e-015
lhumerus -44.4415 26.0985 27.8273
lradius 17.2729
lwrist -44.3898
lhand 1.5858 25.3909
lfingers 7.12502
lthumb 27.1084 53.4644
rfemur 304.172 0.0410923 -334.046
rtibia 62.4989
rfoot 148.402 -197.58
rtoes 23.0986
lfemur -31.6739 -16.7515 3.50666
ltibia 44.0566
lfoot -78.9147 -17.199
ltoes 53.6993
435
root 1.88585 15.801 17.0857 214.501 -79.8583 -190.315
lowerback -3.0393 -2.97808 -2.82942
upperback -11.2591 -5.02196 -2.40853
thorax -10.2733 -2.65743 -0.652764
lowerneck -13.2784 -14.3268 -13.4575
upperneck 22.1249 -22.6963 16.3891
head 13.1848 -10.0402 4.26354
rclavicle 2.95195e-014 -6.12257e-014
rhumerus -13.066 3.17997 -62.1946
rradius 25.9252
rwrist -11.3426
rhand -8.8109 7.50548
rfingers 7.12502
rthumb 17.1285 -21.7595
lclavicle 2.95195e-014 -6.12257e-014
lhumerus -44.3047 26.167 26.3969
lradius 17.4029
lwrist -44.8736
lhand 2.54558 25.1995
lfingers 7.12502
lthumb 28.0262 53.1266
rfemur 305.164 1.03724 -334.306
rtibia 61.4878
rfoot 149.122 -198.278
rtoes 22.6319
lfemur -32.1242 -16.0197 2.09187
ltibia 43.9937
lfoot -78.2877 -15.0756
ltoes 53.1547
436
root 1.8351 15.9256 16.9149 192.068 -81.1426 -168.976
lowerback -2.16118 -3.01514 1.097
upperback -10.8533 -4.76399 -1.35966
thorax -10.5378 -2.77885 -1.67612
lowerneck -13.129 -14.1967 -13.567
upperneck 22.8423 -22.6152 16.1082
head 13.4013 -10.0372 4.213
rclavicle 2.7805e-014 9.54166e-015
rhumerus -12.4115 3.8341 -60.2905
rradius 25.0971
rwrist -12.5761
rhand -9.7921 6.88775
rfingers 7.12502
rthumb 16.1838 -22.4567
lclavicle 2.7805e-014 9.54166e-015
lhumerus -44.0522 25.9301 25.3681
lradius 17.6309
lwrist -45.0376
lhand 1.89466 25.8789
lfingers 7.12502
lthumb 27.4038 53.9061
rfemur 308.521 2.51803 -329.977
rtibia 59.8379
rfoot 149.547 -199.153
rtoes 22.6324
lfemur -31.4465 -11.6236 4.63998
ltibia 44.2672
lfoot -73.8171 -10.7254
ltoes 52.5493
437
root 1.7762 16.0899 16.7616 201.082 -80.9719 -178.249
lowerback -2.61091 -2.6115 -0.00202263
upperback -10.8246 -4.35579 -2.3645
thorax -10.2237 -2.54813 -2.19733
lowerneck -11.9924 -14.5215 -12.9768
upperneck 23.0128 -23.5649 16.2217
head 13.3498 -10.4963 4.0261
rclavicle 4.5472e-015 4.92986e-014
rhumerus -12.8645 -3.52058 -57.8993
rradius 23.2106
rwrist -6.96786
rhand -9.01926 7.86446
rfingers 7.12502
rthumb 16.9279 -21.4178
lclavicle 4.5472e-015 4.92986e-014
lhumerus -41.3116 23.7461 26.218
lradius 17.7377
lwrist -44.0153
lhand 1.69872 26.394
lfingers 7.12502
lthumb 27.2164 54.4507
rfemur 309.624 2.97875 -331.454
rtibia 58.6424
rfoot 150.848 -199.183
rtoes 22.9274
lfemur -32.0527 -9.97489 1.68183
ltibia 44.4586
lfoot -71.7818 -7.41065
ltoes 52.191
438
root 1.71775 16.2383 16.6014 207.754 -80.5566 -185.13
lowerback -3.00951 -2.84179 -1.18528
upperback -10.8277 -4.72031 -2.4713
thorax -9.9237 -2.63893 -1.65669
lowerneck -12.0267 -14.3656 -13.0583
upperneck 23.9098 -23.476 15.8868
head 13.6681 -10.476 3.9403
rclavicle -2.62644e-014 -1.59028e-015
rhumerus -12.2689 -8.93907 -55.8145
rradius 22.0256
rwrist -1.23914
rhand -7.83333 8.75125
rfingers 7.12502
rthumb 18.0692 -20.4294
lclavicle -2.62644e-014 -1.59028e-015
lhumerus -41.1101 23.0447 25.5818
lradius 18.0541
lwrist -43.2341
lhand 2.50633 26.0345
lfingers 7.12502
lthumb 27.9887 53.9676
rfemur 310.702 4.03204 -332.814
rtibia 57.2701
rfoot 152.273 -199.312
rtoes 24.0029
lfemur -32.6813 -8.63071 -0.924809
ltibia 44.7859
lfoot -69.6261 -4.50318
ltoes 51.9453
439
root 1.66256 16.3689 16.4504 214.032 -79.9346 -191.405
lowerback -3.59356 -3.07547 -2.41441
upperback -10.8818 -5.0785 -2.54438
thorax -9.55989 -2.73058 -1.07367
lowerneck -12.0599 -14.1799 -13.2163
upperneck 24.7009 -23.3085 15.6073
head 13.9537 -10.4274 3.90337
rclavicle 1.0635e-014 1.82882e-014
rhumerus -12.3948 -6.89221 -54.1311
rradius 22.9373
rwrist -2.53803
rhand -7.18536 7.99656
rfingers 7.12502
rthumb 18.6925 -21.1253
lclavicle 1.0635e-014 1.82882e-014
lhumerus -41.0035 22.9134 24.7433
lradius 18.1807
lwrist -43.0165
lhand 2.99409 25.4999
lfingers 7.12502
lthumb 28.4549 53.3561
rfemur 311.387 4.8096 -334.071
rtibia 56.0903
rfoot 154.265 -199.637
rtoes 24.3021
lfemur -33.4927 -7.61772 -3.52246
ltibia 44.9777
lfoot -67.3511 -2.32835
ltoes 51.6612
440
root 1.61085 16.513 16.3143 217.471 -79.8348 -194.795
lowerback -4.08929 -3.1686 -2.70595
upperback -10.9104 -5.21553 -2.68533
thorax -9.29617 -2.79515 -1.08912
lowerneck -11.6254 -14.1425 -13.2863
upperneck 25.1309 -23.4812 15.6304
head 14.0935 -10.54 3.91663
rclavicle -9.44227e-016 -1.90833e-014
rhumerus -12.4002 -8.69301 -52.1147
rradius 22.3788
rwrist -0.624025
rhand -6.58619 8.45953
rfingers 7.12502
rthumb 19.2688 -20.6059
lclavicle -9.44227e-016 -1.90833e-014
lhumerus -40.2664 22.6715 24.3428
lradius 18.2688
lwrist -43.2738
lhand 3.2352 24.9187
lfingers 7.12502
lthumb 28.6853 52.7361
rfemur 312.121 5.30326 -334.679
rtibia 54.8628
rfoot 156.078 -199.753
rtoes 25.4131
lfemur -34.6011 -6.52103 -5.50704
ltibia 45.3283
lfoot -64.2675 0.512384
ltoes 51.1612
441
root 1.56381 16.6674 16.1617 219.163 -79.4571 -196.878
lowerback -4.09055 -2.78715 -3.19253
upperback -10.7874 -4.73793 -3.19206
thorax -9.16816 -2.54591 -1.3798
lowerneck -10.8595 -14.4569 -12.7923
upperneck 25.3127 -24.3806 15.7947
head 14.1362 -10.9444 3.75077
rclavicle 3.54831e-014 9.14409e-014
rhumerus -13.6364 -9.98406 -49.9364
rradius 22.3229
rwrist -0.47969
rhand -6.42286 8.52898
rfingers 7.12502
rthumb 19.4258 -20.5207
lclavicle 3.54831e-014 9.14409e-014
lhumerus -38.2156 21.7068 24.636
lradius 18.4055
lwrist -43.5883
lhand 3.87635 23.9784
lfingers 7.12502
lthumb 29.2976 51.6905
rfemur 313.473 6.61576 -335.369
rtibia 53.5429
rfoot 157.697 -200.077
rtoes 26.2487
lfemur -35.1438 -5.48836 -7.45878
ltibia 45.8991
lfoot -60.816 2.96907
ltoes 50.8352
